<?xml version="1.0" encoding="utf-8"?>
<!-- Generator: Adobe Illustrator 25.3.1, SVG Export Plug-In . SVG Version: 6.00 Build 0)  -->
<svg version="1.1" id="Layer_1" xmlns="http://www.w3.org/2000/svg" xmlns:xlink="http://www.w3.org/1999/xlink" x="0px" y="0px"
	 viewBox="0 0 300 300" style="enable-background:new 0 0 300 300;" xml:space="preserve">
<style type="text/css">
	.st0{fill:#FFFFFF;}
</style>
<g>
	<path class="st0" d="M226.7,30.6H73.3C46.7,30.6,25,52.3,25,78.9v153.4c0,26.6,21.7,48.3,48.3,48.3h153.4
		c26.6,0,48.3-21.7,48.3-48.3V78.9C275,52.3,253.3,30.6,226.7,30.6z M241.9,58.6l5.5,0V100l-41.8,0.1l-0.1-41.5
		C205.4,58.7,241.9,58.6,241.9,58.6z M150,113.8c34.7,0,41.8,32.5,41.8,41.8c0,23-18.8,41.8-41.8,41.8c-23.1,0-41.8-18.8-41.8-41.8
		C108.2,146.3,115.3,113.8,150,113.8z M247.6,229.3c0,13.2-10.7,24-24,24H75.9c-13.2,0-24-10.7-24-24V127.8h34.7
		c-3.2,7.9-5,18.8-5,27.8c0,37.7,30.7,68.4,68.4,68.4s68.3-30.7,68.3-68.4c0-9.1-1.8-19.9-5-27.8h34.3L247.6,229.3L247.6,229.3z"/>
</g>
</svg>
