<?xml version="1.0" encoding="utf-8"?>
<!-- Generator: Adobe Illustrator 25.3.1, SVG Export Plug-In . SVG Version: 6.00 Build 0)  -->
<svg version="1.1" id="Layer_1" xmlns="http://www.w3.org/2000/svg" xmlns:xlink="http://www.w3.org/1999/xlink" x="0px" y="0px"
	 viewBox="0 0 300 300" style="enable-background:new 0 0 300 300;" xml:space="preserve">
<style type="text/css">
	.st0{fill:#FFFFFF;}
</style>
<path class="st0" d="M95.6,149v-0.7c-0.1,0.2-0.3,0.4-0.4,0.7H95.6z"/>
<path class="st0" d="M78.6,268.2H22.5V99.5h56.1V268.2z M50.6,76.5h-0.4c-18.8,0-31-13-31-29.2c0-16.6,12.5-29.1,31.7-29.1
	c19.2,0,31,12.6,31.4,29.1C82.3,63.5,70.1,76.5,50.6,76.5z M280.8,268.2h-56.1v-90.2c0-22.7-8.1-38.1-28.4-38.1
	c-15.5,0-24.7,10.4-28.8,20.5c-1.5,3.6-1.9,8.6-1.9,13.7v94.2h-56.1c0,0,0.8-152.9,0-168.7h56.1v23.9c7.5-11.5,20.8-27.9,50.5-27.9
	c36.9,0,64.6,24.1,64.6,75.9V268.2z"/>
</svg>
